<svg width="2196" height="773" viewBox="0 0 2196 773" fill="none" xmlns="http://www.w3.org/2000/svg">
<path d="M989.859 114.892C976.059 114.892 964.719 118.672 955.839 126.232C947.079 133.792 942.699 144.112 942.699 157.192C942.699 170.272 947.079 180.592 955.839 188.152C964.719 195.712 976.059 199.492 989.859 199.492C1001.86 199.492 1011.7 197.032 1019.38 192.112C1026.94 187.072 1030.9 180.832 1031.26 173.392C1031.38 170.392 1029.64 168.652 1026.04 168.172C1025.32 168.052 1022.86 167.992 1018.66 167.992H987.159C978.759 167.992 974.559 164.092 974.559 156.292C974.559 148.492 978.759 144.592 987.159 144.592H1021.36C1033.6 144.592 1042.42 146.692 1047.82 150.892C1053.34 154.972 1055.92 161.572 1055.56 170.692C1055.2 181.372 1051.6 190.792 1044.76 198.952C1031.8 214.312 1013.5 221.992 989.859 221.992C968.619 221.992 951.159 216.232 937.479 204.712C923.799 192.952 916.959 177.112 916.959 157.192C916.959 137.152 923.799 121.372 937.479 109.852C951.039 98.2124 968.499 92.3924 989.859 92.3924C1011.34 92.3924 1028.26 97.4324 1040.62 107.512C1043.5 109.792 1045.36 112.312 1046.2 115.072C1047.16 117.832 1047.1 120.292 1046.02 122.452C1045.06 124.612 1043.56 126.412 1041.52 127.852C1039.6 129.172 1037.14 129.772 1034.14 129.652C1031.14 129.412 1028.26 128.272 1025.5 126.232C1015.3 118.672 1003.42 114.892 989.859 114.892ZM1137.71 195.892V104.992C1137.71 101.152 1138.85 98.0924 1141.13 95.8124C1143.41 93.5324 1146.47 92.3924 1150.31 92.3924C1154.15 92.3924 1157.21 93.5324 1159.49 95.8124C1161.77 98.0924 1162.91 101.152 1162.91 104.992V191.392C1162.91 192.952 1162.91 194.032 1162.91 194.632C1163.03 195.112 1163.33 195.592 1163.81 196.072C1164.41 196.552 1165.31 196.792 1166.51 196.792H1240.31C1248.71 196.792 1252.91 200.692 1252.91 208.492C1252.91 216.292 1248.71 220.192 1240.31 220.192H1162.91C1152.95 220.192 1146.23 218.812 1142.75 216.052C1139.39 213.172 1137.71 206.452 1137.71 195.892ZM1340.93 204.712C1327.25 192.952 1320.41 177.112 1320.41 157.192C1320.41 137.152 1327.25 121.372 1340.93 109.852C1354.49 98.2124 1371.95 92.3924 1393.31 92.3924C1414.67 92.3924 1432.13 98.2124 1445.69 109.852C1459.37 121.372 1466.21 137.152 1466.21 157.192C1466.21 177.112 1459.37 192.952 1445.69 204.712C1432.01 216.232 1414.55 221.992 1393.31 221.992C1372.07 221.992 1354.61 216.232 1340.93 204.712ZM1359.29 126.232C1350.53 133.792 1346.15 144.112 1346.15 157.192C1346.15 170.272 1350.53 180.592 1359.29 188.152C1368.17 195.712 1379.51 199.492 1393.31 199.492C1407.11 199.492 1418.39 195.712 1427.15 188.152C1436.03 180.592 1440.47 170.272 1440.47 157.192C1440.47 144.112 1436.03 133.792 1427.15 126.232C1418.39 118.672 1407.11 114.892 1393.31 114.892C1379.51 114.892 1368.17 118.672 1359.29 126.232ZM1549.94 195.892V118.492C1549.94 107.812 1551.62 101.152 1554.98 98.5124C1558.34 95.6324 1565.06 94.1924 1575.14 94.1924H1637.24C1650.08 94.1924 1660.34 97.3724 1668.02 103.732C1675.7 109.972 1679.54 118.492 1679.54 129.292C1679.54 135.892 1677.92 141.652 1674.68 146.572C1671.44 151.372 1667.42 154.552 1662.62 156.112V156.472C1668.86 158.512 1673.84 162.052 1677.56 167.092C1681.28 172.132 1683.14 178.012 1683.14 184.732C1683.14 196.012 1679.12 204.772 1671.08 211.012C1663.04 217.132 1652.06 220.192 1638.14 220.192H1575.14C1565.18 220.192 1558.46 218.812 1554.98 216.052C1551.62 213.172 1549.94 206.452 1549.94 195.892ZM1638.14 167.992H1575.14V191.392C1575.14 192.952 1575.14 194.032 1575.14 194.632C1575.26 195.112 1575.56 195.592 1576.04 196.072C1576.64 196.552 1577.54 196.792 1578.74 196.792H1638.14C1650.74 196.792 1657.04 191.992 1657.04 182.392C1657.04 172.792 1650.74 167.992 1638.14 167.992ZM1635.44 117.592H1578.74C1577.06 117.592 1576.04 117.952 1575.68 118.672C1575.32 119.272 1575.14 120.712 1575.14 122.992V144.592H1636.34C1648.34 144.592 1654.34 140.092 1654.34 131.092C1654.34 122.092 1648.04 117.592 1635.44 117.592ZM1881.69 212.092L1870.71 191.392H1795.29L1784.49 212.092C1780.89 218.692 1776.33 221.992 1770.81 221.992C1767.45 221.992 1764.57 220.852 1762.17 218.572C1759.89 216.292 1758.75 213.532 1758.75 210.292C1758.75 207.772 1759.71 204.772 1761.63 201.292L1811.13 107.692C1814.25 101.812 1817.49 97.7924 1820.85 95.6324C1824.33 93.4724 1828.41 92.3924 1833.09 92.3924C1837.65 92.3924 1841.55 93.4724 1844.79 95.6324C1848.15 97.7924 1851.51 101.812 1854.87 107.692L1904.73 201.292C1906.53 204.652 1907.43 207.652 1907.43 210.292C1907.43 213.532 1906.29 216.292 1904.01 218.572C1901.73 220.852 1898.91 221.992 1895.55 221.992C1889.79 221.992 1885.17 218.692 1881.69 212.092ZM1858.47 167.992L1833.09 119.572L1807.71 167.992H1858.47ZM1987.49 195.892V104.992C1987.49 101.152 1988.63 98.0924 1990.91 95.8124C1993.19 93.5324 1996.25 92.3924 2000.09 92.3924C2003.93 92.3924 2006.99 93.5324 2009.27 95.8124C2011.55 98.0924 2012.69 101.152 2012.69 104.992V191.392C2012.69 192.952 2012.69 194.032 2012.69 194.632C2012.81 195.112 2013.11 195.592 2013.59 196.072C2014.19 196.552 2015.09 196.792 2016.29 196.792H2090.09C2098.49 196.792 2102.69 200.692 2102.69 208.492C2102.69 216.292 2098.49 220.192 2090.09 220.192H2012.69C2002.73 220.192 1996.01 218.812 1992.53 216.052C1989.17 213.172 1987.49 206.452 1987.49 195.892ZM1011.98 461.192H950.783C942.383 461.192 938.183 457.292 938.183 449.492C938.183 441.692 942.383 437.792 950.783 437.792H968.783V358.592H950.783C942.383 358.592 938.183 354.692 938.183 346.892C938.183 339.092 942.383 335.192 950.783 335.192H1011.98C1020.38 335.192 1024.58 339.092 1024.58 346.892C1024.58 354.692 1020.38 358.592 1011.98 358.592H993.983V437.792H1011.98C1020.38 437.792 1024.58 441.692 1024.58 449.492C1024.58 457.292 1020.38 461.192 1011.98 461.192ZM1110.02 450.392V345.992C1110.02 342.152 1111.16 339.092 1113.44 336.812C1115.72 334.532 1118.78 333.392 1122.62 333.392C1125.74 333.392 1128.44 334.052 1130.72 335.372C1133 336.692 1135.7 339.032 1138.82 342.392L1212.62 421.592V345.992C1212.62 342.152 1213.76 339.092 1216.04 336.812C1218.32 334.532 1221.38 333.392 1225.22 333.392C1229.06 333.392 1232.12 334.532 1234.4 336.812C1236.68 339.092 1237.82 342.152 1237.82 345.992V450.392C1237.82 454.232 1236.68 457.292 1234.4 459.572C1232.12 461.852 1229.06 462.992 1225.22 462.992C1222.22 462.992 1219.52 462.332 1217.12 461.012C1214.72 459.572 1212.02 457.232 1209.02 453.992L1135.22 374.792V450.392C1135.22 454.232 1134.08 457.292 1131.8 459.572C1129.52 461.852 1126.46 462.992 1122.62 462.992C1118.78 462.992 1115.72 461.852 1113.44 459.572C1111.16 457.292 1110.02 454.232 1110.02 450.392ZM1343.69 343.292L1392.29 435.812L1440.89 343.292C1444.49 336.692 1449.05 333.392 1454.57 333.392C1457.93 333.392 1460.75 334.532 1463.03 336.812C1465.43 339.092 1466.63 341.852 1466.63 345.092C1466.63 347.612 1465.67 350.612 1463.75 354.092L1414.25 447.692C1411.13 453.572 1407.83 457.592 1404.35 459.752C1400.99 461.912 1396.97 462.992 1392.29 462.992C1387.73 462.992 1383.77 461.912 1380.41 459.752C1377.17 457.592 1373.87 453.572 1370.51 447.692L1320.65 354.092C1318.85 350.612 1317.95 347.612 1317.95 345.092C1317.95 341.852 1319.09 339.092 1321.37 336.812C1323.65 334.532 1326.47 333.392 1329.83 333.392C1335.59 333.392 1340.21 336.692 1343.69 343.292ZM1636.69 408.992H1571.89V432.392C1571.89 433.952 1571.89 435.032 1571.89 435.632C1572.01 436.112 1572.31 436.592 1572.79 437.072C1573.39 437.552 1574.29 437.792 1575.49 437.792H1652.89C1661.29 437.792 1665.49 441.692 1665.49 449.492C1665.49 457.292 1661.29 461.192 1652.89 461.192H1571.89C1561.93 461.192 1555.21 459.812 1551.73 457.052C1548.37 454.172 1546.69 447.452 1546.69 436.892V359.492C1546.69 348.812 1548.37 342.152 1551.73 339.512C1555.09 336.632 1561.81 335.192 1571.89 335.192H1652.89C1661.29 335.192 1665.49 339.092 1665.49 346.892C1665.49 354.692 1661.29 358.592 1652.89 358.592H1575.49C1573.81 358.592 1572.79 358.952 1572.43 359.672C1572.07 360.272 1571.89 361.712 1571.89 363.992V385.592H1636.69C1645.09 385.592 1649.29 389.492 1649.29 397.292C1649.29 405.092 1645.09 408.992 1636.69 408.992ZM1753.48 447.872C1749.52 444.752 1747.54 441.152 1747.54 437.072C1747.54 433.592 1748.68 430.832 1750.96 428.792C1753.24 426.632 1755.88 425.552 1758.88 425.552C1762 425.552 1765.24 426.752 1768.6 429.152C1772.92 432.272 1779.04 434.852 1786.96 436.892C1794.88 438.692 1802.8 439.592 1810.72 439.592C1839.04 439.592 1853.2 433.352 1853.2 420.872C1853.2 417.752 1852.3 415.352 1850.5 413.672C1848.7 411.992 1846.06 410.612 1842.58 409.532C1840.06 408.692 1835.02 408.092 1827.46 407.732L1810.18 407.192C1809.58 407.072 1808.44 407.012 1806.76 407.012C1805.2 406.892 1804.06 406.832 1803.34 406.832C1801.66 406.832 1797.4 406.592 1790.56 406.112C1790.2 406.112 1786.48 405.692 1779.4 404.852C1774.72 404.252 1771.12 403.532 1768.6 402.692C1760.92 400.172 1755.76 396.932 1753.12 392.972C1749.28 387.332 1747.36 380.612 1747.36 372.812C1747.36 359.732 1752.94 349.892 1764.1 343.292C1775.38 336.692 1791.46 333.392 1812.34 333.392C1835.26 333.392 1852.96 338.432 1865.44 348.512C1869.64 351.992 1871.74 355.712 1871.74 359.672C1871.74 363.152 1870.66 365.852 1868.5 367.772C1866.34 369.692 1863.76 370.652 1860.76 370.652C1856.8 370.652 1853.32 369.512 1850.32 367.232C1840.84 360.272 1828.18 356.792 1812.34 356.792C1799.26 356.792 1789.24 358.232 1782.28 361.112C1775.44 363.872 1772.02 367.832 1772.02 372.992C1772.02 377.672 1774.66 380.612 1779.94 381.812C1783.9 382.532 1786.6 382.952 1788.04 383.072C1789 383.192 1790.74 383.312 1793.26 383.432C1795.78 383.432 1797.64 383.432 1798.84 383.432C1802.56 383.432 1806.34 383.552 1810.18 383.792C1810.66 383.912 1811.5 384.032 1812.7 384.152C1814.02 384.152 1814.98 384.152 1815.58 384.152L1828.18 385.052C1831.18 385.172 1835.2 385.712 1840.24 386.672C1845.52 387.392 1849.48 388.292 1852.12 389.372C1861.12 392.492 1867.12 396.152 1870.12 400.352C1874.8 406.592 1877.14 414.032 1877.14 422.672C1877.14 435.752 1871.32 445.772 1859.68 452.732C1848.16 459.572 1831.84 462.992 1810.72 462.992C1799.92 462.992 1789.18 461.732 1778.5 459.212C1767.94 456.572 1759.6 452.792 1753.48 447.872ZM2072.46 358.592H2030.16V450.392C2030.16 454.232 2029.02 457.292 2026.74 459.572C2024.46 461.852 2021.4 462.992 2017.56 462.992C2013.72 462.992 2010.66 461.852 2008.38 459.572C2006.1 457.292 2004.96 454.232 2004.96 450.392V358.592H1962.66C1954.26 358.592 1950.06 354.692 1950.06 346.892C1950.06 339.092 1954.26 335.192 1962.66 335.192H2072.46C2080.86 335.192 2085.06 339.092 2085.06 346.892C2085.06 354.692 2080.86 358.592 2072.46 358.592ZM1118.72 677.892V600.492C1118.72 589.812 1120.4 583.152 1123.76 580.512C1127.12 577.632 1133.84 576.192 1143.92 576.192H1206.02C1218.86 576.192 1229.12 579.372 1236.8 585.732C1244.48 591.972 1248.32 600.492 1248.32 611.292C1248.32 617.892 1246.7 623.652 1243.46 628.572C1240.22 633.372 1236.2 636.552 1231.4 638.112V638.472C1237.64 640.512 1242.62 644.052 1246.34 649.092C1250.06 654.132 1251.92 660.012 1251.92 666.732C1251.92 678.012 1247.9 686.772 1239.86 693.012C1231.82 699.132 1220.84 702.192 1206.92 702.192H1143.92C1133.96 702.192 1127.24 700.812 1123.76 698.052C1120.4 695.172 1118.72 688.452 1118.72 677.892ZM1206.92 649.992H1143.92V673.392C1143.92 674.952 1143.92 676.032 1143.92 676.632C1144.04 677.112 1144.34 677.592 1144.82 678.072C1145.42 678.552 1146.32 678.792 1147.52 678.792H1206.92C1219.52 678.792 1225.82 673.992 1225.82 664.392C1225.82 654.792 1219.52 649.992 1206.92 649.992ZM1204.22 599.592H1147.52C1145.84 599.592 1144.82 599.952 1144.46 600.672C1144.1 601.272 1143.92 602.712 1143.92 604.992V626.592H1205.12C1217.12 626.592 1223.12 622.092 1223.12 613.092C1223.12 604.092 1216.82 599.592 1204.22 599.592ZM1450.47 694.092L1439.49 673.392H1364.07L1353.27 694.092C1349.67 700.692 1345.11 703.992 1339.59 703.992C1336.23 703.992 1333.35 702.852 1330.95 700.572C1328.67 698.292 1327.53 695.532 1327.53 692.292C1327.53 689.772 1328.49 686.772 1330.41 683.292L1379.91 589.692C1383.03 583.812 1386.27 579.792 1389.63 577.632C1393.11 575.472 1397.19 574.392 1401.87 574.392C1406.43 574.392 1410.33 575.472 1413.57 577.632C1416.93 579.792 1420.29 583.812 1423.65 589.692L1473.51 683.292C1475.31 686.652 1476.21 689.652 1476.21 692.292C1476.21 695.532 1475.07 698.292 1472.79 700.572C1470.51 702.852 1467.69 703.992 1464.33 703.992C1458.57 703.992 1453.95 700.692 1450.47 694.092ZM1427.25 649.992L1401.87 601.572L1376.49 649.992H1427.25ZM1556.27 691.392V586.992C1556.27 583.152 1557.41 580.092 1559.69 577.812C1561.97 575.532 1565.03 574.392 1568.87 574.392C1571.99 574.392 1574.69 575.052 1576.97 576.372C1579.25 577.692 1581.95 580.032 1585.07 583.392L1658.87 662.592V586.992C1658.87 583.152 1660.01 580.092 1662.29 577.812C1664.57 575.532 1667.63 574.392 1671.47 574.392C1675.31 574.392 1678.37 575.532 1680.65 577.812C1682.93 580.092 1684.07 583.152 1684.07 586.992V691.392C1684.07 695.232 1682.93 698.292 1680.65 700.572C1678.37 702.852 1675.31 703.992 1671.47 703.992C1668.47 703.992 1665.77 703.332 1663.37 702.012C1660.97 700.572 1658.27 698.232 1655.27 694.992L1581.47 615.792V691.392C1581.47 695.232 1580.33 698.292 1578.05 700.572C1575.77 702.852 1572.71 703.992 1568.87 703.992C1565.03 703.992 1561.97 702.852 1559.69 700.572C1557.41 698.292 1556.27 695.232 1556.27 691.392ZM1773.2 691.392V586.992C1773.2 583.152 1774.34 580.092 1776.62 577.812C1778.9 575.532 1781.96 574.392 1785.8 574.392C1789.64 574.392 1792.7 575.532 1794.98 577.812C1797.26 580.092 1798.4 583.152 1798.4 586.992V632.892L1876.52 579.072C1881.08 575.952 1885.04 574.392 1888.4 574.392C1891.88 574.392 1894.76 575.532 1897.04 577.812C1899.32 579.972 1900.46 582.672 1900.46 585.912C1900.46 590.472 1897.94 594.432 1892.9 597.792L1842.32 632.532L1894.34 678.252C1900.46 683.412 1903.52 687.972 1903.52 691.932C1903.52 695.292 1902.38 698.172 1900.1 700.572C1897.82 702.852 1894.94 703.992 1891.46 703.992C1887.62 703.992 1883 701.652 1877.6 696.972L1820.9 647.292L1798.4 662.952V691.392C1798.4 695.232 1797.26 698.292 1794.98 700.572C1792.7 702.852 1789.64 703.992 1785.8 703.992C1781.96 703.992 1778.9 702.852 1776.62 700.572C1774.34 698.292 1773.2 695.232 1773.2 691.392Z" fill="white"/>
<path d="M681.192 577.183V108.249H703.614V577.183H681.192Z" fill="white" stroke="white"/>
<path d="M500.195 96.4171C503.688 102.24 546.779 108.063 594.527 108.063H680.708V331.667C680.708 457.444 686.531 564.587 692.354 573.904C699.342 585.55 704 506.357 704 337.49V84.7711H598.021C531.639 84.7711 495.536 89.4295 500.195 96.4171Z" fill="white"/>
<path d="M703.227 85.4385H499.107V107.861H684.636L703.227 85.4385Z" fill="white" stroke="white"/>
<path d="M29.4039 577.068V108.134H6.98162V577.068H29.4039Z" fill="white" stroke="white"/>
<path d="M210.398 96.3106C206.905 102.134 163.814 107.957 116.066 107.957H29.8849V331.56C29.8849 457.337 24.0619 564.481 18.2389 573.797C11.2513 585.443 6.59285 506.25 6.59285 337.383V84.6646H112.572C178.954 84.6646 215.057 89.323 210.398 96.3106Z" fill="white"/>
<path d="M7.36513 85.3257H211.485V107.748H25.9567L7.36513 85.3257Z" fill="white" stroke="white"/>
<path d="M471.08 271.092C471.08 276.915 481.561 282.738 494.372 282.738C507.183 282.738 517.664 276.915 517.664 271.092C517.664 264.104 507.183 259.446 494.372 259.446C481.561 259.446 471.08 264.104 471.08 271.092Z" fill="white"/>
<path d="M203.223 340.968C203.223 366.589 209.046 387.552 214.869 387.552C221.856 387.552 226.515 366.589 226.515 340.968C226.515 315.346 221.856 294.384 214.869 294.384C209.046 294.384 203.223 315.346 203.223 340.968Z" fill="white"/>
<path d="M482.726 340.968C482.726 366.589 488.549 387.552 494.372 387.552C501.359 387.552 506.018 366.589 506.018 340.968C506.018 315.346 501.359 294.384 494.372 294.384C488.549 294.384 482.726 315.346 482.726 340.968Z" fill="white"/>
<path d="M191.577 410.87C191.577 416.693 202.058 422.516 214.869 422.516C227.68 422.516 238.161 416.693 238.161 410.87C238.161 403.882 227.68 399.224 214.869 399.224C202.058 399.224 191.577 403.882 191.577 410.87Z" fill="white"/>
<path d="M471.08 410.87C471.08 416.693 481.561 422.516 494.372 422.516C507.183 422.516 517.664 416.693 517.664 410.87C517.664 403.882 507.183 399.224 494.372 399.224C481.561 399.224 471.08 403.882 471.08 410.87Z" fill="white"/>
<path d="M503 498.21C503 498.21 296.391 462.5 238.161 483L209.046 493.552L164.791 516.844C111.219 544.794 36.6849 618.164 12.2282 665.913C-5.24082 698.522 -5.24082 702.015 20.3804 729.966C46.0017 756.752 51.8247 757.916 138.005 752.093C219.528 746.27 228.844 742.776 243.984 714.826C252.136 698.522 280.087 671.736 305.708 656.596C341.811 634.469 353.457 619.329 359.28 587.885C365.103 545.959 345.305 516.844 311.531 515.679C303.379 515.679 296.391 509.856 296.391 504.033C296.391 487.729 389.56 488.894 453.613 506.363C507.184 521.502 502.5 525 487 543.5L467.5 564.593C467.5 564.593 453.613 581.5 439.637 599.531C433.5 619.329 422.168 622.823 447.79 649.608C463.103 665.574 488.451 666.129 504.448 650.849L511.843 643.785C553.768 603.024 564.25 600.695 564.25 630.975C563 642.5 544.452 665.913 517.666 683.382C492.045 699.686 471.082 721.814 471.082 729.966C471.082 740.447 485.057 733.46 507.184 712.497C526.983 693.863 552.225 682.5 558.427 678.723C578.5 666.5 594.53 608.847 575.896 597.201C554.933 584.391 518.83 597.201 500.197 623.987C489.715 639.127 476.905 643.785 464.094 639.127C446.625 632.139 440.379 620.286 466 593.5C481.14 577.196 493.303 567.391 497.5 563.5C500.197 561 506.02 555.276 526.983 552.947C559.592 549.453 572.402 557.605 628.303 617C664.406 655.431 692.356 676.394 692.356 667.077C692.356 643.785 593.365 548.288 540.958 520.338L500.197 498.21L469 490L453.613 488.5L420.5 485.5C543.5 527.5 503 498.21 503 498.21ZM291.733 529.655C359.28 564.593 358.115 600.695 288.239 642.621C260.289 658.925 234.667 684.546 231.174 697.357C225.351 719.484 213.704 722.978 141.499 728.801C72.7876 733.46 55.3185 731.13 43.6725 715.991C20.3804 686.876 25.0388 670.571 71.623 619.329C107.726 579.732 216.034 505.198 238.161 504.033C241.655 504.033 266.112 515.679 291.733 529.655Z" fill="white"/>
<rect x="202.98" y="294.195" width="23.9686" height="93.555" fill="white"/>
<rect x="191.383" y="398.574" width="47.1641" height="23.9686" fill="white"/>
<rect x="191.383" y="259.402" width="47.1641" height="23.9686" fill="white"/>
<rect x="482.097" y="294.195" width="23.9686" height="93.555" fill="white"/>
<rect x="470.501" y="398.574" width="47.1641" height="23.9686" fill="white"/>
<rect x="470.501" y="259.402" width="47.1641" height="23.9686" fill="white"/>
<path d="M448.496 339.428C448.496 393.375 406.747 436.106 356.457 436.106C306.166 436.106 264.418 393.375 264.418 339.428C264.418 285.481 306.166 242.75 356.457 242.75C406.747 242.75 448.496 285.481 448.496 339.428Z" stroke="white" stroke-width="27"/>
<path d="M362.71 129.564L356.138 125.198L349.525 129.501L236.641 202.953L202.741 225.011H243.185H466.635H506.383L473.275 203.016L362.71 129.564Z" stroke="white" stroke-width="24"/>
<rect x="142.674" y="430.278" width="413.652" height="24.7418" fill="white"/>
<rect x="93.8247" y="216.111" width="304.463" height="24.8254" transform="rotate(-31.066 93.8247 216.111)" fill="white"/>
<rect x="601.238" y="240.194" width="304.463" height="24.8254" transform="rotate(-148.315 601.238 240.194)" fill="white"/>
<path d="M346.818 393.586V385.396C331.131 384.269 319.648 380.759 312.368 374.866C309.508 372.613 308.078 370.013 308.078 367.066C308.078 364.553 308.901 362.559 310.548 361.086C312.195 359.526 314.101 358.746 316.268 358.746C318.521 358.746 320.861 359.613 323.288 361.346C328.141 364.899 335.985 367.283 346.818 368.496V345.096C345.778 345.096 344.695 345.053 343.568 344.966C342.528 344.879 341.445 344.793 340.318 344.706C339.278 344.619 338.541 344.576 338.108 344.576C331.088 343.969 325.975 343.059 322.768 341.846C312.888 338.293 307.948 331.229 307.948 320.656C307.948 312.423 311.328 305.923 318.088 301.156C324.848 296.389 334.425 293.529 346.818 292.576V284.386C346.818 281.613 347.641 279.403 349.288 277.756C350.935 276.109 353.145 275.286 355.918 275.286C358.691 275.286 360.901 276.109 362.548 277.756C364.195 279.403 365.018 281.613 365.018 284.386V292.576C378.365 293.876 388.635 297.386 395.828 303.106C398.861 305.619 400.378 308.306 400.378 311.166C400.378 313.679 399.598 315.629 398.038 317.016C396.478 318.403 394.615 319.096 392.448 319.096C389.588 319.096 387.075 318.273 384.908 316.626C380.228 313.246 373.598 310.949 365.018 309.736V329.366C374.205 330.059 381.571 331.316 387.118 333.136C392.578 334.869 396.738 337.599 399.598 341.326C402.458 345.053 404.018 350.166 404.278 356.666C404.278 364.986 400.855 371.616 394.008 376.556C387.161 381.409 377.498 384.356 365.018 385.396V393.586C365.018 396.359 364.195 398.569 362.548 400.216C360.901 401.863 358.691 402.686 355.918 402.686C353.145 402.686 350.935 401.863 349.288 400.216C347.641 398.569 346.818 396.359 346.818 393.586ZM386.988 355.366C386.988 351.379 384.691 348.823 380.098 347.696C376.631 346.569 371.605 345.963 365.018 345.876V368.496C379.665 367.109 386.988 362.733 386.988 355.366ZM325.758 320.786C325.758 324.166 327.708 326.289 331.608 327.156C334.468 327.763 339.061 328.153 345.388 328.326H346.818V309.476C332.778 310.949 325.758 314.719 325.758 320.786Z" fill="white"/>
<rect x="798" width="12" height="773" fill="white"/>
<path d="M696 679C696 737.954 665.623 644.126 594 579C525.39 516.614 417.573 484 323 484C235.657 484 136.02 550.778 77.5 609.5C24.6545 662.528 9.37146 711.078 4.5 708C3.62655 707.448 2.11996 708.39 1.83526 704C1.57471 699.982 1.5 694.228 1.5 686.5C1.5 643.898 32.8461 612.042 69.5 579C114.093 538.801 172.493 499.179 247 480.5C277.181 472.934 310.841 470 346 470C473.813 470 580.41 517.911 641.5 579C672.8 610.299 696 639.895 696 679Z" fill="white"/>
<path d="M704 692.5C704 699.072 693.851 702.276 687.5 696C677.679 686.296 669.983 662.816 669 663C663.694 663.995 678.089 643.934 616 582.5C556.007 523.141 435.079 485.5 352.5 485.5C311.979 485.5 263.439 486.233 219.5 500C167.52 516.287 120.981 548.273 87.5 582.5C30.3634 640.91 13.3507 704.272 7 703.5C5.1475 703.275 1 707.809 1 692.5C1 567.96 158.372 467 352.5 467C546.628 467 704 567.96 704 692.5Z" fill="white"/>
</svg>
